<svg xmlns="http://www.w3.org/2000/svg" xml:space="preserve" version="1.0" viewBox="0 0 900 309">
    <g fill="#DDD">
        <path d="M154.538 25.525c-.363-1.25-.875-2.612-2.575-2.6-1.513 0-2.175 1.113-2.175 2.163 0 1.437.95 2.1 2.5 2.9l.062.037c1.525.775 3.338 1.7 3.35 3.863 0 2.062-1.738 3.712-4.35 3.724-.8 0-1.437-.15-1.925-.287-.487-.175-.787-.312-.962-.412-.163-.413-.425-2.1-.538-3.038l.563-.137c.325 1.2 1.212 3.175 3.225 3.175 1.474 0 2.35-.926 2.35-2.363 0-1.45-1.088-2.138-2.563-2.912l-.112-.063c-1.263-.663-3.125-1.65-3.138-3.8 0-1.887 1.5-3.5 4.038-3.512.9 0 1.725.212 2.475.437.075.638.162 1.313.3 2.338l.05.375-.575.125zm-10.175 10.062c.1-.625.287-2.5.324-3.162h-.6c-.162.8-.45 1.5-.737 1.937-.375.563-.9.775-2.375.95-.975.113-1.662.175-2.062-.012-.375-.212-.55-.613-.65-1.525l-.425-3.687 1.85-.213c1.7-.2 1.85-.1 2.262 1.275l.563-.062-.438-3.75-.562.062c-.1 1.338-.175 1.5-1.938 1.713l-1.837.212-.513-4.425c-.075-.587-.038-.625.575-.7l1.475-.175c1.4-.162 1.95-.087 2.262.288.3.4.55.812.813 1.6l.55-.163c-.05-.287-.113-.613-.163-.937-.137-.763-.275-1.513-.312-1.85l-8.7 1.012.062.55c1.538-.037 1.7 0 1.9 1.75l.9 7.763c.188 1.574.05 1.75-1.712 2.1l.063.55 9.4-1.088z"/>
        <path fill-rule="evenodd" d="M122.175 26.375c2.425-.575 4.338-.513 5.788.325 1.15.687 2.15 1.925 2.587 3.725.55 2.287.075 4.2-1.125 5.662-1.162 1.45-2.937 2.375-5.287 2.938l-4.525 1.087-.125-.512c1.612-.513 1.737-.663 1.35-2.288L119 29.662c-.387-1.637-.562-1.675-2.062-1.45l-.138-.55 5.363-1.287zm.275 10.413c.35 1.45 1.063 1.662 2.463 1.324 3.575-.85 4.575-3.924 3.837-6.975-.475-1.962-1.6-3.487-3.35-4.025-.987-.35-2.15-.312-3.437 0-.8.188-1.275.413-1.438.588-.162.175-.162.4 0 1.15l1.9 7.938z" clip-rule="evenodd"/>
        <path d="M105.1 33.588c-.287-.825.037-1.25 1.013-1.75l-.225-.5-4.225 1.9.224.5c1.263-.488 1.8-.45 2.25.312.275.475.726 1.263 1.463 2.913l1.987 4.4-.05.025-11.512-5.613-2.65 1.2.225.5c.875-.312 1.325-.337 1.887-.062.513.287.588.337 1.175 1.65L98.437 43c.738 1.65 1.075 2.525 1.275 3.113.3.912-.037 1.35-1.05 1.875l.225.5 4.238-1.913-.225-.5c-1.25.475-1.763.45-2.263-.425-.287-.5-.725-1.325-1.474-2.975l-2.025-4.487h.037l11.85 5.925.55-.25-3.25-7.213c-.75-1.662-1.075-2.487-1.25-3.05z"/>
        <path fill-rule="evenodd" d="M92.863 44.337c2.237 3.6 1.1 7.363-1.95 9.263-3.013 1.875-6.875 1.025-8.875-2.162-1.875-3-1.513-7.088 1.987-9.263 2.825-1.763 6.75-1.162 8.825 2.175zm-9.4 5.563c1.95 3.125 5.087 4.338 7.437 2.875 1.85-1.15 2.55-3.737.55-6.937-2.187-3.513-5.187-4.238-7.362-2.875-1.863 1.162-2.563 3.825-.625 6.937" clip-rule="evenodd"/>
        <path d="m78.563 61.35.337.438 4.113-3.188-.338-.438c-1.35.888-1.525.913-2.563-.425L75.3 51.525c-1.025-1.313-.975-1.513.237-2.588L75.2 48.5l-4.113 3.187.338.438c1.35-.888 1.537-.9 2.563.425l4.812 6.212c1.025 1.325.975 1.513-.225 2.588zm-9.038-4.488c-.8-.537-1.262-.774-1.65-.85-.55-.124-.888 0-1.963 1l-1.012.95 6.6 7.063c1.063 1.138 1.313 1.175 2.75-.012l.375.4-4.125 3.85-.375-.4c1.225-1.3 1.2-1.563.15-2.688l-6.6-7.062-.888.825c-1.187 1.112-1.375 1.5-1.25 2 .05.4.313.912.738 1.712l-.413.388a123 123 0 0 0-2.237-2.75l.287-.263c.513.138.725 0 1.125-.375l5.663-5.3c.387-.362.425-.55.4-1.037l.3-.288c.612.663 1.662 1.638 2.512 2.4l-.375.438zM65.775 73.7c-.262-.688-1.062-2-1.575-2.787l-.537.3c.862 2.012 1.012 3.525-.288 5.05-1.925 2.275-5.237 2.312-8.05-.063-2.275-1.925-3.262-5.05-1.15-7.55 1.363-1.625 2.775-1.975 4.688-1.025l.275-.537c-.738-.5-1.338-.875-2.075-1.325l-.45-.288a5 5 0 0 1-.4.3c-.563.413-1.45 1.075-2.25 2.013-2.825 3.35-2.788 7.537.362 10.2 2.388 2.012 6.35 2.562 9.5-1.175.913-1.075 1.675-2.6 1.925-3.1z"/>
        <path fill-rule="evenodd" d="m55.075 87.762-.462-.3c.55-1.124.512-1.35-.263-1.562-.587-.163-1.362-.338-2.237-.55l-.888-.213-2.3 3.5.075.1a60 60 0 0 0 1.563 2.013c.8 1.038 1.062 1 1.987-.15l.463.3-2.338 3.563-.462-.3c.537-1.125.587-1.425-.488-2.95l-6.387-9.063.187-.6c1.213.288 2.463.6 3.738.9 2.387.575 4.812 1.175 7.125 1.713 1.75.4 2.05.287 2.837-.713l.463.3-2.638 4.025zM45.25 83.6l-.025.037c1 1.363 2.013 2.738 2.975 4.038l.188.263 1.987-3.025-5.137-1.3zm4.3 13.213c.125-.2.225-.4.325-.613l-.425-.3c-.3.338-.688.65-1.45.862-.663.2-1.313.338-2.538.525-1.05.138-2.6.288-3.325.3.075-1.587-.387-2.975-1.9-3.724-1.05-.525-2.075-.463-2.887.025-.775.45-1.35 1.237-1.988 2.525l-2.162 4.362.487.25c.8-1.312.926-1.425 2.425-.687l7.076 3.5c1.5.737 1.525.95.912 2.45l.5.25 2.287-4.625-.487-.25c-.8 1.362-.987 1.462-2.488.725l-2.8-1.388.275-.562c.45-.913.813-1.113 1.45-1.163.238-.025.488-.037.75-.062a43 43 0 0 0 2.938-.313c1.537-.225 2.288-.775 3.013-2.062zm-8.15.874c.138.613 0 1.263-.462 2.163l-.413.85-4.325-2.15c-.475-.238-.65-.413-.675-.575-.037-.188.038-.525.3-1.038.663-1.337 1.988-2.237 3.888-1.3.95.475 1.512 1.1 1.7 2.05z" clip-rule="evenodd"/>
        <path d="M40.6 108.038c.575.324 2.175 1.325 2.688 1.7l-3.225 8.9-.513-.188c.475-1.725.387-1.925-1.112-2.475l-7.35-2.662c-1.663-.6-1.776-.476-2.426.925l-.512-.188 2.987-8.237c.325.112 1.05.325 1.788.55.312.087.637.187.925.275l-.1.562c-.838-.112-1.313-.075-1.8.013-.488.112-.788.575-1.275 1.9l-.513 1.4c-.212.575-.187.625.375.825l4.188 1.512.625-1.737c.6-1.663.487-1.813-.663-2.5l.2-.538 3.55 1.288-.2.537c-1.412-.237-1.575-.15-2.15 1.45l-.637 1.75 3.487 1.263c.863.312 1.3.35 1.65.1.35-.275.6-.913.938-1.838.512-1.4.55-1.975.212-2.55-.25-.45-.762-1.025-1.412-1.537l.275-.525zm-12.775 11.637c.363-.163.875-.212 1.85-.2l.075-.563c-1.125-.174-2.55-.412-3.425-.625l-.1.4c.287.388.362.576.25 1.088l-1.813 7.537c-.125.538-.224.775-.725.938l-.087.387c1.037.288 2.262.688 3.375 1.05l.137-.55c-.787-.425-1.287-.712-1.55-1.012-.375-.35-.437-.775-.062-2.363l.287-1.187 9.4 2.25c1.513.362 1.663.562 1.363 2.325l.537.125 1.313-5.475-.538-.125c-.55 1.787-.775 1.887-2.287 1.537l-9.388-2.25.325-1.35c.35-1.437.55-1.725 1.088-1.925zm-3.812 13.463c-.063 1.1.137 1.6.987 1.775.575.137 1.45.274 3.263.475l7.862.862-.063.6-11.15 7.188v.037l4.9.537c1.8.2 2.738.238 3.313.25 1.012.013 1.287-.412 1.512-1.725l.55.063-.512 4.625-.55-.063c.062-1.137-.138-1.65-1.075-1.862-.6-.125-1.525-.288-3.325-.488l-4.3-.475c-1.425-.162-1.513-.125-2.013.175-.537.338-.737.75-.912 1.663l-.55-.063.325-2.887 10.7-7.063v-.062l-4.8-.525c-1.8-.2-2.7-.225-3.25-.225-.888 0-1.2.437-1.425 1.775l-.55-.063.512-4.6.55.063zm10.1 22.975h.55l.037-5.2h-.55c-.125 1.6-.225 1.762-1.912 1.75l-7.85-.063c-1.675-.013-1.788-.175-1.888-1.787h-.55l-.037 5.2h.55c.125-1.613.25-1.763 1.912-1.75l7.85.062c1.675.013 1.788.175 1.888 1.788"/>
        <path fill-rule="evenodd" d="M229.4 234.875H78.313a1.17 1.17 0 0 1-1.163-1.163c0-.637.525-1.162 1.163-1.162h56.925c2.875-1.538 5-3.15 5.325-4.775.9-4.5 2.7-14.375 0-23.812-2.7-7.063-9.488-11.913-17.313-15.238-2.325.338-5.125 1.3-7.387 3.625 1.987 1.688 3.412 2.562 3.587 2.663 0 0-8.15 5.75-10.037 10.6-1.188-1.538-5.85-6.2-7.7-6.85.862-1.825 5.237-8.376 10.175-10.463.487.775 1.287 1.65 2.175 2.488 1.425-1.338 3.3-2.65 5.687-3.425-8.35-3-17.312-4.475-23.6-5.2-.162 2.174-.15 4.612.038 7.762-12.675-2.1-25.75 3.338-25.75 3.338-.125-.65-2.625-13.588.312-21 5.463-2.025 19.688.25 26.913 1.8-.588 2.024-1 3.812-1.263 5.7 6.163-.95 11.788-1.1 16.875-.725-1.912-2.663-5.362-6.226-11.35-8.95a46.1 46.1 0 0 1-12.75-8.675c-2.612 1.1-5.075 2.437-6.562 3.537-1.263-7.725-5.525-18.637-10.838-23.237 0 0 13.363-3.213 18.913-7.4.062.425.112.874.175 1.337.887 6.675 2.425 18.15 6.337 23.575-1.962.038-4.1.588-6.712 1.638 3.562 3.037 7.937 5.737 14.437 7.45-.325-1.475-.637-3.713-.275-6.575-1.025 0-1.512.1-2.6.287-.35-3.175-.712-9.387.4-11.637 3.313-.938 8.763.7 9.038.787 0 0-2.913 5.375-2.563 10.913-1.425-.225-1.487-.213-2.475-.238-.175 3.2.113 5.188.975 7.05 7.813 2.488 11.45 7.413 13.763 11.138 4.487.837 7.837 1.812 11.262 3.037-.062-1.475-.212-3.925-1.287-5.95-.875.238-1.55.55-2.563 1.037-.962-5.462-5.05-10.012-5.05-10.012.288-.163 5.175-3.013 8.6-2.888 1.613 1.938 2.713 8.063 3.113 11.225-1.213.075-1.338 0-2.45.288 1.287 2.663 1.662 4.912 1.9 7.138 2.425.924 4.562 1.837 6.4 2.625l.75.325c1.662-13.088-4.763-23.775-9.175-29.388-3 2.238-5.863 4.638-7.075 5.875-2.363-9.125-15.838-21.15-15.838-21.15.538-.262 11.388-5.925 14.988-10.512 8.437 4.775 14.925 17.475 16.137 20.937-1.475.338-3.987 1.85-6.587 3.688 1.962 1.45 4.325 3.512 6.85 6.412 1.175 1.338 2.212 2.888 3.175 4.588 1.275-1.125 3-2.913 4.25-5.238-1.825-.637-3.55-1.162-4.425-1.337 3.825-4.188 5.475-14.95 5.475-14.95.312.187 6.737 3.8 10.237 4.112.363 5.825-3.912 13.287-5.275 15.025-.687-.675-2.45-1.5-4.362-2.25-.713 2.375-2.1 5-4.35 7.6 2.125 4.5 3.812 9.7 5.45 14.775.45 1.375.887 2.738 1.337 4.075 16.213-13.512 11.538-38.612 8.188-50.262-2.213 1.45-4.513 3.262-7.425 5.875-6.963-12.55-20.788-20.2-20.788-20.2.475-.563 10.063-11.725 18.575-14.313 5.575 3.375 13.45 17.4 17.113 24.8-2.238.913-4.138 1.825-6.013 2.938 3.95 5.562 6.738 12.525 8.325 19.725 2.125-2.05 4.663-3.938 7.075-5.538-.887-.712-1.687-1.275-2.237-1.462.875-1.825 5.25-8.375 10.187-10.463 1.688 2.738 7.275 6.55 7.55 6.713 0 0-8.15 5.75-10.025 10.6-.65-.825-2.312-2.563-3.987-4.1-3.738 4.55-6.088 10.45-7.2 13.762.425 5.988 0 11.738-1.363 16.538 3.775-2.35 8.975-3.813 14.713-4.6.6-5.5 5.187-9.7 9.125-12.313-1.588-1.937-3.225-3.487-5.275-5.212 5.125-5.325 15.625-15.188 21.3-16.563 6.575 4.5 11.762 16.613 12.012 17.238 0 0-13.875 2.812-23.2 11.65-1.412-2.388-2.637-4.25-3.837-5.838-3.538 4.288-4.625 8.6-4.938 10.513 6.888-.488 14.163-.176 20.538.612.575-3.187.9-6.163.575-7.663 3.65-.387 17.9.15 25.787 5.775-2.637 5.2-3.187 17.425-3.2 18.026 0 0-16.6-7.138-25.85-5.426.588-1.562 1.513-4.962 2.25-8.487-13.1-.238-21.337 1.575-27.862 4.912 4.362.388 7.212.975 9.05 1.55.637-1.375 1.1-2.637 1.137-3.375 2 .325 9.512 2.7 12.888 6.85-2.163 2.388-4.25 8.813-4.338 9.138 0 0-7.8-6.225-12.975-6.675.625-.875 1.45-2.05 2.462-4.138-3.125-.837-7.675-1.487-11.875-.812-2.412 1.55-4.425 2.75-6.675 4.725-2.75 2.4-4.812 5.587-6.224 9.1 1.062 1.562 1.737 3.8 1.737 6.312 0 4.063-1.737 7.438-4.075 8.3.313 5.625 2.025 10.675 5 13.6a14 14 0 0 0 2.188 1.6h58.3c.637 0 1.162.525 1.162 1.163 0 .637-.525 1.162-1.162 1.162zm-64.787-26.737c.212-2.375-.625-4.4-1.875-4.5-1.25-.113-2.438 1.725-2.65 4.1-.2 2.374.637 4.387 1.875 4.5 1.25.112 2.425-1.726 2.65-4.1" clip-rule="evenodd"/>
        <path d="m158.7 34.813-.037.55 5.2.324.037-.55c-1.6-.212-1.75-.325-1.65-2.012l.488-7.838c.1-1.662.262-1.775 1.887-1.8l.037-.55-5.2-.312-.037.55c1.6.212 1.75.35 1.65 2.012l-.475 7.838c-.1 1.662-.263 1.775-1.888 1.8zm21.588-2.263c-1.188-.012-1.288.075-1.475 1.213l-.263 1.65c-.112.675-.187 1.3-.162 1.837l-.338.025c-1.2.1-2.7.213-4.125 0-4.262-.687-6.687-3.8-6.062-7.637.725-4.5 4.687-6.1 8.487-5.488 1.363.225 2.588.738 3.3 1.025.125.05.238.1.325.138-.05.687-.125 1.775-.175 3.075l-.562.025c-.088-2.438-1.45-3.313-3.288-3.613-2.962-.475-5.487 1.338-6.062 4.925-.45 2.788.675 6.313 4.412 6.913.663.112 1.288.062 1.75-.075.425-.15.688-.35.825-1.163l.263-1.65c.225-1.4.112-1.537-1.763-2l.088-.525 4.925.8-.088.525zm16.262-1.25c.325-.8.85-.912 1.925-.65l.163-.525-4.438-1.338-.162.525c1.275.463 1.65.85 1.487 1.725-.1.538-.287 1.425-.812 3.163l-1.4 4.625h-.063L188.263 27l-2.788-.838-.162.525c.862.338 1.225.613 1.462 1.2.2.55.213.638-.2 2.013l-1.25 4.137c-.525 1.725-.85 2.613-1.087 3.175-.375.888-.913 1-2.025.725l-.163.525 4.45 1.35.163-.525c-1.25-.462-1.613-.812-1.425-1.8.112-.562.325-1.475.85-3.212l1.425-4.713h.037l5.025 12.275.588.175 2.287-7.575c.525-1.75.825-2.587 1.063-3.125z"/>
        <path fill-rule="evenodd" d="M219.212 55.137c3 1.975 6.9 1.45 9.238-2.087 2.163-3.275 1.088-7.1-1.7-8.937-3.437-2.276-7.312-.9-9.262 2.05-2.075 3.15-1.238 7.012 1.725 8.974m.726-.362c-2.313-1.525-2.513-4.888-.488-7.962 2.025-3.063 4.738-3.538 6.562-2.325 2.15 1.412 2.738 4.45.463 7.9-2.075 3.15-4.725 3.587-6.538 2.387" clip-rule="evenodd"/>
        <path d="M245.275 59.825c-.938-.713-1.463-.8-2.062-.263-.388.363-.975.975-2.163 2.338l-1.075 1.225c-1.525 1.75-2.887 2.775-4.525 2.925-1.3.112-2.562-.438-3.537-1.288-.863-.75-1.538-1.7-1.75-2.775-.3-1.45.262-2.925 1.762-4.662l3.225-3.7c1.163-1.338 1.1-1.5.013-2.613l.362-.412 3.838 3.337-.363.413c-1.237-.95-1.425-.963-2.587.375l-2.938 3.375c-2.075 2.387-2.312 4.575-.475 6.175 2.138 1.862 4.35.662 6.475-1.788l.975-1.125c1.188-1.362 1.688-2.025 2.025-2.537.412-.65.263-1.1-.712-2.075l.362-.413 3.525 3.075-.362.413zm9.888 12.637c.7-.512 1.2-.325 1.974.463l.413-.363-3.063-3.475-.412.363c.837 1.062.95 1.587.35 2.25-.375.412-1 1.062-2.363 2.25l-3.625 3.187-.037-.05 2-12.65-1.925-2.187-.413.363c.55.75.713 1.175.613 1.787-.125.575-.15.662-1.225 1.6l-3.25 2.85c-1.363 1.187-2.1 1.775-2.6 2.125-.788.562-1.3.362-2.1-.45l-.413.362 3.075 3.5.413-.362c-.825-1.05-.95-1.55-.263-2.288.388-.425 1.063-1.087 2.413-2.275l3.7-3.25.025.025-2.2 13.075.4.463 5.95-5.225c1.375-1.2 2.062-1.763 2.55-2.088z"/>
        <path fill-rule="evenodd" d="M263.362 80.813c1.376 2.075 1.975 3.9 1.688 5.55-.25 1.324-1.063 2.687-2.6 3.712-1.962 1.3-3.925 1.513-5.7.888-1.762-.6-3.25-1.95-4.587-3.963l-2.575-3.875.437-.287c1.037 1.337 1.213 1.412 2.613.487l6.562-4.35c1.413-.937 1.387-1.112.65-2.437l.475-.313 3.05 4.6zm-9.674 3.837c-1.238.825-1.2 1.575-.4 2.763 2.024 3.062 5.262 2.95 7.874 1.212 1.688-1.112 2.725-2.712 2.626-4.525-.013-1.05-.45-2.125-1.176-3.225-.45-.687-.812-1.062-1.037-1.15s-.437-.012-1.075.413l-6.8 4.512zm8.175 18-.488.25 2.15 4.312.488-.25c-.463-1.2-.425-1.5.812-2.812 1.625-1.712 3.35-3.512 5.038-5.275.912-.95 1.824-1.9 2.687-2.812l-.425-.463-11.037.95c-1.85.15-2.075-.038-2.788-1.063l-.487.25 1.9 3.813.487-.25c-.537-1.375-.437-1.625.863-1.787a46 46 0 0 1 2.537-.338h.112l1.863 3.725c-.225.237-.45.475-.675.7-.6.637-1.138 1.187-1.563 1.612-.575.575-.787.488-1.487-.55zm8.037-6.2v.037l-3.7 3.775-1.612-3.237c1.7-.187 3.512-.387 5.312-.575" clip-rule="evenodd"/>
        <path d="M276.688 114.875c.812-.525 1.212-.863 1.425-1.187.337-.463.35-.813-.15-2.2l-.475-1.313-9.075 3.313c-1.463.537-1.588.75-1.063 2.537l-.513.187-1.937-5.3.513-.187c.725 1.637.962 1.725 2.425 1.187l9.075-3.312-.413-1.15c-.562-1.537-.85-1.85-1.35-1.925-.4-.112-.962-.062-1.862 0l-.2-.537a96 96 0 0 0 3.4-.988l.137.375c-.325.413-.275.663-.087 1.188l2.662 7.287c.188.5.35.6.813.775l.137.388c-.85.312-2.162.9-3.2 1.375l-.25-.513zm-7.663 6.537-.537.138 1.325 5.037.537-.137c-.3-1.588-.238-1.763 1.387-2.188l7.6-2c1.613-.425 1.763-.3 2.288 1.225l.537-.137-1.325-5.038-.537.138c.3 1.587.225 1.775-1.388 2.2l-7.6 2c-1.612.425-1.775.3-2.287-1.225z"/>
        <path fill-rule="evenodd" d="M279.1 141.288c-4.188.662-7.212-1.875-7.762-5.425-.55-3.513 1.75-6.738 5.474-7.313 3.488-.55 7.113 1.387 7.75 5.462.513 3.3-1.574 6.663-5.462 7.276m-1.45-10.85c-3.65.575-5.988 2.987-5.563 5.725.338 2.15 2.45 3.812 6.175 3.225 4.088-.638 5.938-3.113 5.538-5.663-.338-2.175-2.513-3.862-6.138-3.287z" clip-rule="evenodd"/>
        <path d="M284.263 156.563c.862.05 1.137.512 1.237 1.612h.55l-.163-4.65-.55.025c-.024 1.362-.262 1.837-1.15 1.962-.55.075-1.45.188-3.25.25l-4.825.176v-.063l9.55-8.538-.1-2.9-.55.025c-.05.925-.187 1.363-.662 1.775-.462.375-.537.413-1.962.463l-4.313.15c-1.813.062-2.75.037-3.363 0-.962-.063-1.237-.55-1.337-1.688l-.55.025.162 4.65.55-.025c.025-1.337.25-1.8 1.25-1.925.563-.075 1.513-.175 3.313-.237l4.925-.175v.037l-9.988 8.725.025.613 7.913-.288c1.825-.062 2.712-.062 3.3 0zm-210.338-25.55c-2.575-6.875-14-15.075-14-15.075.4-.25 8.325-5.525 10.737-9.375 6.938 3.012 13 12.312 14.213 14.887-2.638.9-9.238 7.413-10.95 9.563m163-34.538s-7.487 5.613-10.537 13.538c-4-2.675-6.188-3.613-9.538-4.475 1.55-4.638 5.013-13.488 8-15.926 5.15.813 11.6 6.463 12.05 6.863zm-85.062-3.937c3.137.325 10.262-1.4 12.512-2.55-.687 3.125 2.138 13.8 3.613 17.687-1.8-.65-8.25 1.038-12.5 2.55.6-8.013-3.625-17.687-3.625-17.687m26.475 35c-1.025 6.25-3.238 12.462-7.475 16.387 3.125-6.037 4.037-13 4.437-17.575-2.5-.862-5-1.437-6.837-1.412 3.725-5.588 4.85-17.138 5.5-23.825.05-.463.087-.9.125-1.325 5.712 3.987 19.175 6.712 19.175 6.712-5.15 4.788-9.025 15.838-10.013 23.613-1.187-.813-2.937-1.75-4.912-2.588zm6.037-26.838c2.713-5.45 8.413-20.55 7.863-25.2 3.112 2.013 13.212 5.588 17.825 5.563 0 0-7.563 13.462-7.875 25.2-5.963-2.838-15.088-6.238-17.813-5.563m35.313 35.738c7.375-4.725 16.674-13.963 19.024-21.476 0 0 9.238 12.288 16.013 16.138-.4.25-.838.5-1.3.775-6.438 3.875-17.55 10.562-21.375 17-1.925-4.212-8.6-10.287-12.363-12.437m13.726 37.875c.75-3.138-3.213-13.588-6.513-20.413 13.488-.438 28.875-9.212 28.875-9.212.013 5.3 4.188 16.862 6.513 20.425-5.338-.6-22.65 6.05-28.875 9.212zM193.475 128.8c8.3-4.45 16.813-20.387 16.813-20.387.387.462 8.437 9.662 13.762 12.075-2.65 9.325-13.45 18.65-16.537 20.625-.6-1.225-2.75-3.438-4.875-5.35-2.888 2.737-5.375 6.475-7.375 13.762-.463-6.187 2-11.712 5.325-15.462-3.013-2.55-5.538-4.338-7.1-5.275zm-86.837-30.513S99.213 87.55 92.888 85.05c2.025-1.55 8.187-7.575 9.062-10.012 2.375 1.162 10.913 6.962 13.575 13.437-3.625 2.175-8.65 9.45-8.875 9.813zm73.987-6.987c-5.962-.862-8.937-.75-13.187.088-.763-6.075-1.638-17.975.437-22.35 6.325-1.888 16.825 1.087 17.35 1.25 0 0-5.425 10.4-4.6 21.012M114.1 130.038c-4.412.262-13.288 2.775-16.963 5.762-.562-7.637-7.662-18.775-11.787-25.25-.3-.475-.588-.912-.85-1.337 7.938-.425 21.975-7.463 21.975-7.463-1.262 7.938 3.025 20.613 7.613 28.288zM73.738 151.65c-1.7 2.237-2.25 11.95-2.025 18.563-10.888-4.413-26.25-2.85-26.25-2.85 1.862-4.225 2.625-14.913 2.025-18.563 4.05 2.363 20.175 3.175 26.25 2.85m60.512-45.225c-5.037-12.025-16.762-20.312-16.762-20.312.487-.463 10.25-9.588 18.2-11.075 4.7 3.6 10.412 17.037 13 24.087-2.788.8-3.7.963-6.138 2.238 1.238 1.95 1.375 5.387.725 7.987-.5-2.525-2.75-5.45-3.75-6.287-1.55.912-3.275 1.95-5.25 3.362zm26.875-24.712c-5.3-.338-8.937-.038-16.037 1.837-.638-12.2-8.863-23.237-8.863-23.237.613-.25 12.9-5.188 20.875-3.975 3.2 4.675 4 18.35 4.025 25.375m-50.75 26.574s9.225-4.087 12.663-7.85c.05.163.1.325.162.488.05.15.1.313.15.475 1.538 4.7 4.163 12.775 7.713 16.175-2.976.6-7.85 3.975-9.788 6.063-1.937-5.413-6.475-12.725-10.912-15.338z"/>
        <path fill-rule="evenodd" d="M3.875 154.5c0-82.85 67.163-150 150-150s150 67.15 150 150-67.15 150-150 150c-82.837 0-150-67.15-150-150m4.125 0c0 80.562 65.313 145.875 145.875 145.875S299.75 235.062 299.75 154.5 234.45 8.625 153.875 8.625 8 73.937 8 154.5" clip-rule="evenodd"/>
        <path d="M173.638 264.263c0 2.125-.4 3.974-1.2 5.537s-1.838 2.837-3.113 3.838a13.3 13.3 0 0 1-4.35 2.237 17.1 17.1 0 0 1-4.988.737h-10.362v-1.25c.337 0 .788-.024 1.325-.087q.825-.112 1.087-.225c.35-.15.6-.375.763-.675.162-.3.25-.675.25-1.087V255.25c0-.4-.075-.762-.213-1.075-.125-.312-.4-.562-.787-.75a4.6 4.6 0 0 0-1.175-.387 9 9 0 0 0-1.088-.163v-1.25h10.925c1.5 0 2.988.238 4.438.7 1.462.463 2.725 1.075 3.8 1.863 1.475 1.05 2.625 2.412 3.45 4.1.837 1.687 1.25 3.687 1.25 5.975zm-4.313-.013c0-1.675-.225-3.2-.675-4.55q-.675-2.044-1.95-3.563a8.6 8.6 0 0 0-3-2.275c-1.175-.55-2.487-.825-3.925-.825-.475 0-1.025 0-1.637.038-.6 0-1.05.025-1.338.037v19.225c0 1.075.313 1.813.938 2.225s1.575.613 2.875.613c1.487 0 2.8-.263 3.912-.788s2.025-1.262 2.713-2.2a9.7 9.7 0 0 0 1.587-3.412c.338-1.3.513-2.813.513-4.513zm-25.987 12.362h-7.963v-1.162c.525-.062.975-.112 1.338-.175.375-.062.562-.213.562-.462 0-.1-.062-.275-.175-.488-.112-.225-.237-.425-.35-.613-.3-.462-.7-1.074-1.212-1.837-.5-.775-1.125-1.7-1.863-2.763a46 46 0 0 0-1.687 2.238c-.513.713-1.063 1.475-1.625 2.288-.088.112-.175.262-.263.437s-.125.313-.125.425c0 .262.162.475.487.65.338.162.85.275 1.513.337v1.125h-6.437v-1.087c.8-.238 1.437-.513 1.925-.85a6.7 6.7 0 0 0 1.35-1.25c.362-.475.875-1.113 1.512-1.938.663-.825 1.5-1.937 2.538-3.35-.6-.862-1.338-1.9-2.2-3.137-.863-1.25-1.563-2.275-2.138-3.1-.3-.45-.662-.8-1.062-1.075-.388-.275-.938-.425-1.663-.425v-1.162h7.563v1.162c-.375 0-.75.025-1.113.075s-.55.15-.55.313c0 .1.038.224.1.35s.163.275.263.425c.262.4.662 1.012 1.2 1.85.55.837 1.15 1.712 1.775 2.637.412-.563.887-1.225 1.425-1.975a50 50 0 0 0 1.512-2.15c.05-.075.1-.187.138-.3q.075-.187.075-.375c0-.25-.2-.437-.613-.587a5.5 5.5 0 0 0-1.15-.313v-1.125h6.413v1.088c-.9.237-1.613.512-2.113.85a5.3 5.3 0 0 0-1.287 1.112 82 82 0 0 0-1.388 1.775c-.525.7-1.275 1.688-2.237 2.963 1.075 1.5 1.937 2.737 2.612 3.7.675.962 1.35 1.95 2.025 2.975q.507.768 1.125 1.237c.425.288 1 .463 1.725.513v1.162zm-22.825 0H109.25v-1.25c.313-.024.775-.062 1.375-.1.6-.05 1.025-.112 1.263-.212.387-.15.674-.363.85-.613.175-.274.262-.637.262-1.112v-18.112c0-.413-.062-.75-.2-1.026-.125-.274-.437-.512-.912-.7-.35-.137-.8-.275-1.338-.387a8.6 8.6 0 0 0-1.3-.225v-1.25h11.263v1.25c-.363 0-.8.063-1.3.137s-.95.163-1.325.276c-.45.137-.75.374-.9.687s-.225.675-.225 1.062v18.088c0 .387.087.737.25 1.037.175.288.475.526.875.7.25.088.65.2 1.2.313.562.1 1.037.162 1.425.175zm58.162-24.999v1.25c.313.024.738.1 1.275.212.537.113.975.25 1.287.4.413.188.676.438.813.738.125.287.2.637.2 1.025v18.037c0 .425-.088.788-.25 1.088q-.225.43-.75.675c-.175.087-.563.15-1.15.212-.588.05-1.063.075-1.413.1v1.25h10.838v-1.25c-.3 0-.75-.075-1.338-.2-.587-.112-.975-.212-1.15-.3-.387-.187-.662-.437-.812-.737s-.225-.65-.225-1.038v-8.612h1.662c2.35 0 2.9.287 3.263.587.237.2.45.525.65.975.212.45.35.813.375.963h1.337V260.5h-1.337a3.8 3.8 0 0 1-.388 1.213q-.281.563-.637.825c-.338.262-.913.5-3.263.5H186v-9.988h6.675c2.35 0 2.9.288 3.262.588.238.2.45.525.65.975.213.45.375.962.375.962h1.338V251.6h-19.613zm-122.15-16.701c-.35 0-.688-.15-.925-.437-15.675-19.25-25.288-42.438-27.775-67.075a1.19 1.19 0 0 1 1.063-1.3 1.183 1.183 0 0 1 1.3 1.062c2.437 24.175 11.862 46.938 27.25 65.813a1.19 1.19 0 0 1-.176 1.675 1.22 1.22 0 0 1-.75.262zm194.7 0c-.262 0-.525-.087-.75-.262a1.19 1.19 0 0 1-.175-1.675c15.387-18.887 24.812-41.638 27.25-65.812a1.183 1.183 0 0 1 1.3-1.063 1.19 1.19 0 0 1 1.062 1.3c-2.487 24.638-12.087 47.837-27.775 67.075a1.19 1.19 0 0 1-.925.437zM209.012 34.5l-.287.575c.137.088.312.213.525.388.225.175.387.337.5.475.15.175.212.35.2.525 0 .162-.062.337-.15.512l-4.125 8.225c-.1.188-.213.338-.363.438-.137.1-.3.137-.5.137-.1 0-.287-.062-.574-.162-.275-.113-.5-.2-.663-.275l-.287.575 4.937 2.475.288-.575a4.6 4.6 0 0 1-.563-.4 3.5 3.5 0 0 1-.45-.4c-.137-.176-.2-.35-.2-.526s.05-.35.138-.525l1.975-3.925.762.376c1.075.537 1.262.8 1.35 1.012q.093.225.075.6c0 .25-.025.45-.05.525l.612.312 1.488-2.962-.613-.313a1.8 1.8 0 0 1-.45.463c-.175.125-.325.2-.475.225-.212.037-.525.025-1.6-.513l-.762-.375 2.287-4.562 3.05 1.525c1.075.537 1.263.8 1.35 1.012q.095.225.075.6c0 .25-.05.525-.05.525l.613.313.912-1.813-8.95-4.487z"/>
        <path fill-rule="evenodd" d="M647.15 101.238c1.525 1.6 2.725 3.525 3.587 5.787s1.288 4.763 1.288 7.512-.425 5.263-1.312 7.525c-.875 2.25-2.088 4.176-3.663 5.763a15.6 15.6 0 0 1-5.262 3.625c-2 .85-4.138 1.275-6.388 1.275-2.412 0-4.637-.45-6.675-1.362-2.037-.913-3.8-2.163-5.25-3.788q-2.194-2.38-3.45-5.775c-.837-2.262-1.263-4.687-1.263-7.262 0-2.825.438-5.35 1.325-7.563.875-2.212 2.088-4.125 3.626-5.737a15.9 15.9 0 0 1 5.325-3.675c2.025-.85 4.15-1.275 6.362-1.275s4.45.437 6.475 1.3a15.5 15.5 0 0 1 5.275 3.65m-3.625 24.662c.9-1.488 1.575-3.175 1.988-5.063.4-1.887.612-3.987.612-6.3s-.237-4.587-.687-6.574c-.463-2-1.138-3.7-2.038-5.1-.888-1.388-2.012-2.475-3.363-3.25-1.35-.788-2.887-1.176-4.637-1.176q-2.925 0-4.988 1.35-2.043 1.35-3.337 3.6c-.813 1.438-1.425 3.125-1.812 5.063-.413 1.925-.6 3.963-.6 6.087q0 3.525.637 6.376c.425 1.9 1.088 3.587 2 5.062.875 1.438 1.975 2.563 3.313 3.375 1.337.813 2.937 1.213 4.787 1.213 1.738 0 3.313-.413 4.7-1.225 1.4-.813 2.55-1.963 3.425-3.438" clip-rule="evenodd"/>
        <path d="M546.662 131.5a14.8 14.8 0 0 0 5.925 1.225c3.163 0 5.913-.737 8.213-2.213q3.45-2.212 5.55-7.387l-1.85-.875a13.7 13.7 0 0 1-1.513 2.987c-.6.913-1.325 1.738-2.137 2.45-.8.688-1.75 1.238-2.863 1.65-1.1.426-2.3.626-3.612.626-1.75 0-3.325-.388-4.75-1.175-1.413-.788-2.625-1.863-3.675-3.263-1.038-1.4-1.838-3.025-2.375-4.887-.563-1.85-.838-3.888-.838-6.113 0-2.512.263-4.8.8-6.838s1.275-3.724 2.213-5.05c.987-1.374 2.162-2.412 3.5-3.112q2.025-1.05 4.388-1.05c1.374 0 2.587.313 3.662.938s1.988 1.487 2.775 2.6c.687.975 1.3 2.162 1.812 3.575.513 1.4.9 2.7 1.163 3.912h2l-.213-12.375h-1.95l-1 1.663a16.6 16.6 0 0 0-3.937-1.775c-1.375-.425-2.913-.638-4.625-.638-2.288 0-4.438.438-6.45 1.325-2.013.875-3.75 2.125-5.238 3.75s-2.662 3.575-3.512 5.838c-.838 2.262-1.275 4.775-1.275 7.562s.437 5.275 1.3 7.488c.85 2.212 2.012 4.087 3.45 5.625a15.1 15.1 0 0 0 5.025 3.537zm-184.699.363h-15.588v-1.75c.35-.026.813-.063 1.413-.1l.5-.038c.825-.062 1.412-.162 1.75-.3.537-.213.912-.5 1.162-.863.25-.362.362-.875.362-1.525V102.15c0-.575-.087-1.05-.262-1.437-.187-.376-.6-.7-1.262-.963-.5-.2-1.1-.375-1.85-.55s-1.35-.275-1.826-.3v-1.75h15.588v1.75c-.513.012-1.113.075-1.813.175-.7.112-1.312.237-1.837.4-.613.2-1.037.513-1.238.95-.212.437-.312.937-.312 1.475v25.112c0 .538.125 1.013.35 1.425.237.425.637.75 1.2.988.337.125.9.275 1.675.425s1.425.237 1.962.262v1.75zm39.625-32.976c-.463.013-1.15.15-2.1.388-.925.25-1.613.5-2.013.762-.587.413-.987 1.188-1.175 2.35-.212 1.163-.3 2.638-.3 4.413v25.438h-2.1l-20.962-28.425v17.9c0 2.012.125 3.55.375 4.624.25 1.075.637 1.85 1.162 2.3.363.363 1.15.7 2.313 1q1.762.469 2.325.488v1.75h-14.188v-1.75c.45-.025 1.175-.188 2.213-.475 1.05-.288 1.687-.55 1.95-.763q.844-.693 1.162-2.1c.213-.937.313-2.537.313-4.812v-17.088c0-.75-.138-1.5-.388-2.25s-.6-1.325-1.05-1.737c-.575-.538-1.375-1-2.362-1.375-1.013-.388-1.8-.588-2.438-.625v-1.75h9.863l19.45 26.45v-16.488c0-2.012-.113-3.562-.375-4.65-.263-1.087-.638-1.8-1.125-2.162-.463-.313-1.2-.613-2.225-.9-1.038-.3-1.813-.45-2.35-.488v-1.75h14.025v1.75zm30.837 7.663h1.7v-9.413h-30.163v9.413h1.7c.15-.537.413-1.213.775-2.038.375-.825.813-1.6 1.3-2.337a13.3 13.3 0 0 1 1.6-1.975c.575-.575 1.138-.9 1.675-.975.675-.075 1.4-.138 2.15-.163s1.375-.037 1.888-.037h1.412v27.987c0 .675-.137 1.2-.375 1.6-.25.4-.637.7-1.187.926-.35.137-1 .262-1.938.362-.924.1-1.637.162-2.087.187v1.75h16.337v-1.75c-.512-.012-1.237-.125-2.174-.312-.925-.2-1.55-.35-1.838-.463-.575-.237-.962-.587-1.188-1.037-.237-.45-.337-.95-.337-1.488V99.012h1.412c.65 0 1.363.013 2.126.05.775.038 1.4.088 1.912.15.538.088 1.088.413 1.663.975a12.3 12.3 0 0 1 1.612 1.975c.475.713.888 1.475 1.275 2.288s.65 1.5.8 2.087zm33.437 15.1-.65 10.225H436.5v-1.75c.5-.025 1.138-.1 1.963-.2.812-.1 1.35-.213 1.587-.338.525-.237.888-.562 1.1-.95.2-.387.3-.887.3-1.487V102.2c0-.537-.088-1.012-.275-1.425-.175-.425-.55-.75-1.125-1.012-.438-.213-1.037-.4-1.762-.563-.75-.162-1.338-.262-1.776-.287v-1.75h26.776v8.362h-1.863c-.312-1.237-1.025-2.55-2.088-3.937-1.087-1.388-2.1-2.15-3.074-2.275a27 27 0 0 0-1.813-.15 45 45 0 0 0-2.375-.05h-5.412V112.9h3.887c1.237 0 2.15-.112 2.725-.35s1.087-.637 1.512-1.187c.35-.475.65-1.1.913-1.888.25-.8.425-1.537.5-2.237h1.85v13.587h-1.85c-.062-.787-.25-1.612-.525-2.487-.288-.863-.575-1.5-.888-1.888-.5-.637-1.075-1.05-1.712-1.25-.625-.2-1.475-.3-2.525-.3h-3.887v10.413c0 1.05.062 1.862.225 2.475.137.6.412 1.062.85 1.362q.638.47 1.725.6c.737.088 1.762.138 3.112.138h2.125c.875 0 1.613-.038 2.213-.1a14 14 0 0 0 1.912-.35c.65-.175 1.125-.4 1.4-.7.75-.788 1.525-1.975 2.337-3.563.825-1.587 1.35-2.762 1.576-3.512h1.75zm132.925-15.1h-1.7c-.15-.588-.412-1.275-.8-2.087a17 17 0 0 0-1.287-2.288 11.6 11.6 0 0 0-1.6-1.975c-.575-.563-1.125-.888-1.663-.975q-.768-.094-1.912-.15c-1.144-.056-1.463-.05-2.125-.05h-1.413V126.8c0 .538.1 1.038.338 1.488.225.45.625.8 1.187 1.037.288.113.9.275 1.825.463.925.2 1.663.3 2.175.312v1.75H575.5v-1.75c.45-.025 1.15-.087 2.075-.187.937-.1 1.587-.225 1.95-.363.525-.212.925-.525 1.175-.925s.375-.937.375-1.6V99.038h-1.413c-.512 0-1.137.012-1.887.037s-1.463.075-2.15.163c-.538.075-1.1.4-1.675.975a12.7 12.7 0 0 0-1.6 1.975 18.4 18.4 0 0 0-1.3 2.337c-.363.825-.625 1.5-.775 2.038h-1.7V97.15h30.162v9.413zm2.338 25.313H616.7v-1.75c-.537-.013-1.187-.1-1.963-.263-.774-.15-1.324-.3-1.662-.425-.575-.238-.963-.575-1.212-.987-.238-.413-.35-.888-.35-1.425V101.9c0-.537.1-1.037.325-1.475.212-.437.625-.75 1.237-.95.512-.162 1.125-.3 1.825-.4a14 14 0 0 1 1.813-.175v-1.75h-15.575v1.75c.474.038 1.074.138 1.812.3.738.175 1.35.35 1.837.55.663.263 1.088.588 1.275.963.188.375.263.862.263 1.437v25.138c0 .65-.112 1.162-.35 1.525-.25.362-.638.662-1.175.862-.338.138-.925.225-1.75.3l-.25.025c-.7.05-1.263.1-1.65.125v1.75zm88.662-32.588c.938-.237 1.638-.375 2.088-.387v-1.75h-14.038v1.75c.538.037 1.325.187 2.363.487s1.775.6 2.225.9c.5.35.863 1.075 1.125 2.163.263 1.087.4 2.637.4 4.65v16.487l-19.45-26.45h-9.862v1.75c.612.037 1.425.238 2.425.625 1.012.375 1.787.837 2.387 1.375.425.413.788.988 1.05 1.738.263.75.388 1.5.388 2.25v17.087c0 2.275-.1 3.875-.313 4.813s-.6 1.637-1.175 2.1c-.25.224-.9.475-1.937.762-1.038.288-1.775.45-2.213.475v1.75h14.188v-1.75q-.562-.018-2.325-.487c-1.763-.47-1.95-.65-2.325-1-.525-.45-.913-1.225-1.163-2.3s-.375-2.613-.375-4.625v-17.9l20.963 28.425h2.112v-25.438c0-1.775.1-3.25.3-4.412.213-1.15.6-1.938 1.188-2.35.4-.263 1.075-.513 2.012-.763z"/>
        <path fill-rule="evenodd" d="M739.9 114.712q0 4.425-1.65 7.688c-1.112 2.175-2.55 3.95-4.325 5.337-1.775 1.388-3.8 2.426-6.025 3.113s-4.525 1.025-6.9 1.025h-14.325v-1.75c.487 0 1.1-.05 1.862-.137.763-.088 1.263-.188 1.5-.313.488-.212.838-.525 1.063-.937s.325-.925.325-1.5v-25.05c0-.55-.088-1.05-.288-1.488q-.28-.656-1.125-1.05a7 7 0 0 0-1.65-.537c-.587-.113-1.1-.188-1.525-.213v-1.75h15.125a20.3 20.3 0 0 1 6.15.963c2.013.65 3.775 1.512 5.263 2.612 2.037 1.45 3.637 3.35 4.787 5.7s1.725 5.113 1.725 8.3zm-5.987-.012c0-2.337-.3-4.438-.913-6.325s-1.525-3.525-2.7-4.937a11.95 11.95 0 0 0-4.125-3.15c-1.637-.775-3.437-1.15-5.425-1.15q-.993 0-2.25.037c-.837.025-1.45.038-1.862.063v26.687c0 1.488.437 2.513 1.287 3.088.863.575 2.188.85 3.963.85 2.05 0 3.862-.363 5.387-1.1 1.538-.738 2.788-1.75 3.738-3.063 1.012-1.375 1.737-2.962 2.2-4.75.475-1.812.687-3.888.687-6.25z" clip-rule="evenodd"/>
        <path d="m772.638 131.863.65-10.226h-1.75c-.226.75-.75 1.913-1.575 3.513-.813 1.587-1.6 2.775-2.338 3.562-.275.3-.75.525-1.4.7s-1.3.288-1.913.35c-.6.063-1.337.1-2.212.1h-2.125c-1.35 0-2.375-.05-3.113-.137s-1.312-.287-1.725-.6c-.425-.312-.712-.763-.862-1.363-.138-.6-.213-1.424-.213-2.474v-10.413h3.888c1.05 0 1.9.1 2.525.3.637.2 1.212.613 1.712 1.25.313.388.6 1.025.888 1.888.287.874.462 1.7.525 2.487h1.85v-13.587h-1.85c-.088.7-.25 1.437-.5 2.237-.263.788-.563 1.425-.913 1.888-.437.55-.937.95-1.525 1.187-.575.237-1.475.35-2.725.35h-3.887V99.087h5.413c.887 0 1.687.026 2.387.05.687.038 1.3.075 1.813.15.962.138 1.987.888 3.075 2.275 1.075 1.388 1.775 2.7 2.112 3.938h1.85v-8.363h-26.775v1.75c.438.038 1.038.125 1.775.288q1.125.244 1.763.562.863.394 1.125 1.013c.187.412.274.887.274 1.425v24.95c0 .6-.1 1.1-.3 1.487-.212.4-.575.713-1.1.95-.237.113-.775.225-1.587.338-.825.1-1.463.175-1.963.2v1.75h28.713zm25.775-15.938a8.1 8.1 0 0 1 1.624 2.675c.35.975.525 2.1.525 3.4 0 3.063-1.125 5.6-3.387 7.588-2.25 1.987-5.063 2.987-8.413 2.987-1.525 0-3.075-.237-4.625-.725s-2.875-1.075-4-1.75l-1.05 1.775h-1.95L776.8 120h1.987c.413 1.463.875 2.788 1.425 3.963a14 14 0 0 0 2.163 3.312 9.5 9.5 0 0 0 2.95 2.288c1.125.575 2.437.85 3.937.85 1.113 0 2.1-.15 2.938-.438.837-.287 1.512-.713 2.025-1.238.525-.537.9-1.175 1.162-1.887q.375-1.088.375-2.513c0-1.375-.387-2.675-1.175-3.875-.775-1.2-1.937-2.1-3.475-2.725a185 185 0 0 0-3.625-1.412 48 48 0 0 1-3.537-1.463c-1.95-.875-3.475-2.037-4.538-3.462-1.087-1.425-1.625-3.288-1.625-5.6 0-1.325.263-2.55.8-3.7.538-1.138 1.313-2.163 2.288-3.063.937-.85 2.05-1.512 3.337-2a11.3 11.3 0 0 1 4.025-.725c1.588 0 3.013.238 4.263.738a20 20 0 0 1 3.45 1.725l1-1.663h1.95l.2 11.525h-1.988a48 48 0 0 0-1.2-3.787 14.3 14.3 0 0 0-1.737-3.275c-.713-.95-1.55-1.7-2.563-2.263-1-.562-2.237-.837-3.7-.837-1.55 0-2.85.487-3.937 1.487-1.088.988-1.638 2.2-1.638 3.638s.35 2.738 1.05 3.725c.713.987 1.713 1.8 3.05 2.425a42 42 0 0 0 3.488 1.488c1.15.412 2.25.862 3.325 1.337a24 24 0 0 1 2.812 1.45 10.7 10.7 0 0 1 2.35 1.888zm6.037 15.938h15.587v-1.75c-.537-.013-1.187-.1-1.962-.263-.775-.15-1.325-.3-1.663-.425-.575-.238-.987-.575-1.212-.987-.237-.413-.35-.888-.35-1.425V101.9c0-.537.1-1.037.312-1.475.225-.437.625-.75 1.263-.95.512-.162 1.125-.3 1.825-.4a14 14 0 0 1 1.8-.175v-1.75h-15.587v1.75c.475.038 1.087.138 1.825.3.75.175 1.362.35 1.85.55.662.263 1.087.588 1.275.963s.262.862.262 1.437v25.138c0 .65-.112 1.162-.362 1.525-.238.362-.625.662-1.163.862-.337.138-.925.225-1.75.3l-.25.025c-.712.05-1.262.1-1.662.125v1.75zm53.4-13.875q-.581.075-1.575.225c-.65.1-1.188.25-1.6.45-.488.237-.825.6-1.025 1.05-.213.45-.313.975-.313 1.587v2.7c.013 1.963.013 3.288.038 3.975s.05 1.25.087 1.7a37 37 0 0 1-6.45 2.262c-2.15.525-4.25.788-6.312.788a16.7 16.7 0 0 1-6.387-1.25c-2.038-.837-3.838-2.013-5.35-3.55-1.538-1.55-2.775-3.437-3.675-5.662s-1.363-4.7-1.363-7.45.425-5.1 1.3-7.363 2.1-4.225 3.687-5.9a16.4 16.4 0 0 1 5.513-3.813c2.15-.912 4.425-1.362 6.862-1.362 1.95 0 3.65.238 5.088.713 1.437.475 2.725 1.037 3.825 1.712l.987-1.663h1.95l.213 12.138h-2a36 36 0 0 0-1.263-3.937c-.5-1.3-1.15-2.45-1.95-3.475a9.1 9.1 0 0 0-2.9-2.45c-1.15-.613-2.512-.913-4.112-.913-1.725 0-3.288.35-4.65 1.063-1.363.712-2.55 1.762-3.563 3.175-.975 1.362-1.75 3.05-2.287 5.075-.525 2.025-.8 4.287-.8 6.787 0 2.213.262 4.287.787 6.238.538 1.95 1.3 3.637 2.3 5.062 1.013 1.463 2.263 2.6 3.788 3.438 1.5.837 3.225 1.25 5.125 1.25 1.438 0 2.738-.225 3.912-.663 1.175-.45 2-.912 2.5-1.412.125-.85.2-1.713.213-2.575V121.8c0-.687-.088-1.3-.275-1.837-.188-.538-.575-.925-1.162-1.175-.538-.238-1.276-.425-2.188-.55s-1.637-.2-2.162-.225v-1.763h15.175v1.763zm36.113-18.713c.937-.237 1.65-.375 2.087-.387v-1.75h-14.025v1.75c.538.037 1.325.187 2.35.487 1.038.3 1.763.6 2.225.9.488.35.863 1.075 1.125 2.163s.4 2.637.4 4.65v16.487l-19.462-26.45H858.8v1.75c.625.037 1.438.238 2.438.625 1 .375 1.787.837 2.375 1.375.437.413.787.988 1.05 1.738.262.75.387 1.5.387 2.25v17.087c0 2.275-.1 3.875-.325 4.813-.212.937-.587 1.637-1.162 2.1-.263.224-.9.475-1.95.762-1.038.288-1.763.45-2.213.475v1.75h14.188v-1.75q-.562-.018-2.325-.487c-1.163-.313-1.938-.65-2.313-1-.525-.45-.912-1.225-1.162-2.3s-.375-2.613-.375-4.625v-17.9l20.962 28.425h2.1v-25.438c0-1.775.1-3.25.3-4.412.213-1.15.6-1.938 1.175-2.35.4-.263 1.088-.513 2.013-.763z"/>
        <path fill-rule="evenodd" d="M446.9 170.875c-1.4-3.687-3.35-6.825-5.837-9.437-2.413-2.55-5.275-4.538-8.588-5.95-3.312-1.413-6.825-2.113-10.562-2.113s-7.05.688-10.35 2.075-6.188 3.388-8.675 5.988c-2.513 2.637-4.488 5.75-5.913 9.362s-2.15 7.713-2.15 12.313c0 4.2.675 8.15 2.037 11.837 1.375 3.688 3.25 6.813 5.625 9.4 2.375 2.637 5.238 4.7 8.563 6.175s6.95 2.212 10.863 2.212c3.674 0 7.15-.687 10.4-2.075a25.8 25.8 0 0 0 8.587-5.912c2.538-2.575 4.525-5.713 5.95-9.375 1.425-3.675 2.15-7.763 2.15-12.25 0-4.488-.712-8.55-2.1-12.238zm-8.5 22.513c-.675 3.062-1.75 5.8-3.237 8.237-1.438 2.4-3.3 4.263-5.575 5.6-2.276 1.338-4.825 2-7.675 2-3.026 0-5.613-.662-7.788-1.975-2.175-1.325-3.975-3.15-5.4-5.5-1.488-2.4-2.575-5.137-3.275-8.237-.687-3.1-1.025-6.563-1.025-10.4 0-3.463.312-6.775.975-9.913.65-3.15 1.637-5.887 2.962-8.237 1.413-2.45 3.225-4.413 5.438-5.875 2.225-1.463 4.937-2.2 8.112-2.2 2.838 0 5.35.625 7.55 1.9 2.2 1.262 4.025 3.025 5.488 5.287 1.463 2.288 2.562 5.063 3.325 8.313.762 3.262 1.125 6.825 1.125 10.725s-.325 7.212-1.013 10.275z" clip-rule="evenodd"/>
        <path d="M511.1 157.613c-.737.025-1.825.187-3.25.475-1.425.3-2.575.737-3.487 1.325-.9.612-1.513 1.875-1.863 3.787q-.525 2.869-.525 7.013v24.6c0 3.137-.637 5.862-1.937 8.175a17.3 17.3 0 0 1-5.125 5.712c-2.088 1.438-4.288 2.463-6.613 3.088-2.312.625-4.525.937-6.65.937-3.387 0-6.4-.45-9.05-1.337-2.637-.888-4.862-2.1-6.662-3.613-1.775-1.512-3.113-3.25-4.013-5.2-.887-1.963-1.35-4-1.35-6.125v-33.463c0-.937-.15-1.712-.462-2.325-.313-.625-.925-1.2-1.875-1.737-.663-.375-1.538-.675-2.575-.9-1.05-.225-1.9-.375-2.575-.425v-2.862h23.437v2.862c-.75.025-1.662.15-2.787.362-1.113.213-1.938.413-2.463.6-.887.325-1.487.85-1.787 1.6-.3.738-.45 1.55-.45 2.425v31.25c0 1.513.15 3.113.5 4.776.325 1.65.987 3.2 1.975 4.637 1.037 1.463 2.45 2.65 4.237 3.587 1.775.925 4.225 1.388 7.338 1.388 2.925 0 5.387-.463 7.362-1.388 1.988-.937 3.563-2.15 4.7-3.675 1.1-1.437 1.875-2.937 2.313-4.5.462-1.575.675-3.15.675-4.75v-23.2q0-4.425-.638-7.237c-.412-1.875-1.05-3.112-1.875-3.687-.925-.663-2.2-1.188-3.812-1.563-1.613-.362-2.838-.587-3.675-.637v-2.863h22.925v2.863zm60.925.637q2.307-.6 3.413-.637v-2.863h-22.863v2.863c.875.05 2.15.324 3.838.8 1.675.475 2.887.975 3.625 1.474.8.588 1.4 1.75 1.825 3.513.412 1.763.625 4.287.625 7.588v26.862L530.8 154.762h-16.075v2.863c1.013.05 2.325.4 3.95 1.012 1.638.625 2.913 1.375 3.875 2.25.725.663 1.3 1.6 1.713 2.825s.637 2.438.637 3.663v27.85c0 3.688-.187 6.3-.525 7.825-.337 1.525-.975 2.662-1.9 3.4-.437.375-1.475.788-3.162 1.25-1.7.462-2.9.725-3.613.775v2.862h23.112v-2.85c-.612-.037-1.887-.3-3.8-.8s-3.174-1.05-3.774-1.637c-.863-.738-1.488-1.988-1.9-3.738-.413-1.75-.613-4.262-.613-7.537v-29.162l34.15 46.312h3.412V170.5c0-2.9.176-5.287.5-7.175.326-1.887.988-3.162 1.926-3.825.662-.425 1.75-.837 3.287-1.238z"/>
        <path fill-rule="evenodd" d="M634.025 183.388c0 4.812-.9 8.987-2.712 12.512-1.788 3.538-4.138 6.425-7.013 8.7-2.912 2.263-6.187 3.95-9.812 5.063-3.625 1.125-7.363 1.674-11.225 1.674h-23.338v-2.862c.775 0 1.763-.062 3.013-.213 1.225-.15 2.037-.312 2.45-.5.8-.337 1.375-.85 1.725-1.525.362-.675.537-1.5.537-2.45V163c0-.9-.137-1.713-.462-2.425-.313-.713-.913-1.288-1.838-1.713-.837-.4-1.725-.687-2.7-.875-.962-.187-1.787-.312-2.5-.362v-2.862h24.638c3.387 0 6.737.525 10.025 1.574 3.287 1.05 6.137 2.463 8.587 4.25 3.313 2.363 5.9 5.463 7.788 9.288s2.812 8.337 2.825 13.525zm-9.762-.026c0-3.8-.513-7.237-1.5-10.3-1.013-3.062-2.475-5.75-4.4-8.037q-2.739-3.262-6.713-5.137t-8.85-1.875c-1.088 0-2.3.025-3.663.062-1.362.038-2.362.075-3.025.1v43.475c0 2.412.7 4.1 2.1 5.025 1.4.937 3.55 1.387 6.45 1.387 3.35 0 6.275-.6 8.788-1.787 2.5-1.2 4.537-2.85 6.1-4.975 1.637-2.238 2.825-4.813 3.575-7.75.762-2.938 1.137-6.338 1.137-10.175zm45.912 27.975H693.6v-2.85c-.663-.037-1.488-.175-2.475-.424-.987-.263-1.762-.563-2.387-.938q-1.35-.918-2.1-1.875c-.75-.957-.963-1.475-1.35-2.513l-18.788-48.8h-3.175l-2.6 6.738c-2 5.175-4.175 10.812-6.538 16.912a2128 2128 0 0 1-9.375 23.926c-.562 1.387-1.125 2.462-1.712 3.25s-1.4 1.537-2.462 2.25q-.995.637-2.55 1.012c-1.025.25-1.888.4-2.575.45v2.862h21.25v-2.85c-2.1-.112-3.975-.462-5.638-1.037q-2.512-.88-2.512-2.475c0-.45.075-1.025.212-1.75.125-.712.363-1.637.713-2.787.375-1.176.8-2.45 1.262-3.825.475-1.376 1.075-3 1.8-4.863h19.788l4.675 12.662c.1.276.187.575.237.925s.075.638.075.875c0 .588-.675 1.075-2.037 1.475-1.375.4-3.088.663-5.138.8v2.863zM662.4 166.25l8.55 21.975h-16.975z" clip-rule="evenodd"/>
        <path d="M741.5 170.113h-2.763c-.25-.963-.674-2.1-1.3-3.413s-1.325-2.55-2.087-3.725a18.7 18.7 0 0 0-2.6-3.212c-.925-.913-1.85-1.438-2.725-1.575-.813-.1-1.863-.188-3.1-.238q-1.875-.075-3.45-.075h-2.3v45.238c0 .875.187 1.687.55 2.412.362.738 1.025 1.3 1.937 1.7.488.187 1.475.438 3 .762 1.513.313 2.7.488 3.55.525v2.85h-26.6V208.5c.75-.05 1.875-.163 3.4-.313 1.513-.162 2.575-.362 3.163-.6.875-.35 1.513-.85 1.925-1.5s.612-1.525.612-2.612v-45.6h-2.3c-.825 0-1.85.025-3.062.062a44 44 0 0 0-3.5.25c-.875.113-1.775.625-2.725 1.575a21 21 0 0 0-2.6 3.213c-.8 1.2-1.5 2.475-2.113 3.812-.612 1.35-1.037 2.45-1.275 3.338h-2.775v-15.363H741.5v15.363zm6.3 41.224h25.375v-2.85c-.875-.037-1.937-.175-3.187-.424-1.263-.263-2.163-.488-2.725-.7-.925-.4-1.588-.938-1.963-1.613-.387-.675-.575-1.45-.575-2.337V162.5c0-.875.175-1.662.512-2.387.338-.725 1.025-1.238 2.025-1.563.85-.275 1.85-.488 2.988-.662q1.706-.263 2.925-.3v-2.863H747.8v2.862c.763.05 1.75.226 2.963.5 1.2.288 2.2.576 3 .9q1.631.638 2.062 1.575c.288.625.438 1.4.438 2.325v40.95c0 1.063-.2 1.888-.588 2.488-.4.6-1.037 1.075-1.912 1.412-.563.213-1.513.375-2.863.475s-2.375.188-3.087.238v2.863z"/>
        <path fill-rule="evenodd" d="M823.275 161.425c2.488 2.613 4.438 5.75 5.837 9.438 1.4 3.687 2.113 7.762 2.113 12.237s-.725 8.588-2.15 12.25c-1.437 3.675-3.412 6.8-5.962 9.375a25.9 25.9 0 0 1-8.575 5.913c-3.263 1.387-6.725 2.075-10.4 2.075q-5.887 0-10.875-2.213a25.4 25.4 0 0 1-8.563-6.175c-2.375-2.587-4.25-5.712-5.612-9.4-1.363-3.687-2.05-7.637-2.05-11.837 0-4.6.725-8.713 2.15-12.313 1.437-3.6 3.4-6.725 5.924-9.362a25.5 25.5 0 0 1 8.675-5.988 26.4 26.4 0 0 1 10.35-2.075c3.613 0 7.25.7 10.563 2.113a25.5 25.5 0 0 1 8.588 5.95zm-5.913 40.2c1.475-2.425 2.563-5.175 3.25-8.237.675-3.063 1.013-6.5 1.013-10.275s-.375-7.463-1.138-10.725c-.75-3.25-1.862-6.025-3.312-8.313-1.45-2.262-3.288-4.037-5.488-5.287-2.2-1.263-4.725-1.9-7.55-1.9-3.175 0-5.887.725-8.112 2.2-2.225 1.462-4.05 3.425-5.45 5.875-1.325 2.35-2.312 5.087-2.975 8.237-.638 3.15-.963 6.45-.963 9.913 0 3.837.338 7.3 1.038 10.4.7 3.087 1.775 5.837 3.262 8.237 1.438 2.35 3.238 4.175 5.4 5.5 2.175 1.325 4.775 1.975 7.8 1.975 2.825 0 5.388-.663 7.676-2 2.274-1.338 4.137-3.2 5.562-5.6z" clip-rule="evenodd"/>
        <path d="M892.725 158.25c1.538-.4 2.675-.613 3.4-.637v-2.863h-22.85v2.863c.862.05 2.15.324 3.825.8 1.687.475 2.887.975 3.637 1.474.788.588 1.4 1.75 1.813 3.513.437 1.763.637 4.287.637 7.588v26.862l-31.675-43.088h-16.075v2.863c1.013.05 2.325.4 3.95 1.012 1.625.625 2.925 1.375 3.875 2.25.713.663 1.288 1.6 1.7 2.825.438 1.225.638 2.438.638 3.663v27.85c0 3.688-.175 6.3-.513 7.825-.35 1.525-.987 2.662-1.912 3.4-.425.375-1.475.788-3.163 1.25s-2.887.725-3.6.775v2.862h23.1v-2.85c-.612-.037-1.875-.3-3.787-.8-1.925-.5-3.175-1.05-3.8-1.637-.85-.737-1.475-1.987-1.9-3.737-.4-1.75-.613-4.263-.613-7.538v-29.162l34.15 46.312h3.425V170.5c0-2.9.175-5.287.5-7.175s.975-3.162 1.925-3.825c.65-.425 1.75-.837 3.288-1.238z"/>
        <path fill-rule="evenodd" d="m500.675 129.988-.137-.026-.225-.037c-.638-.113-1.163-.275-1.588-.488-.575-.3-1.15-.674-1.725-1.137s-1.212-1.188-1.937-2.163c-1.638-2.225-3.025-4.1-4.15-5.65-1.138-1.55-2.55-3.45-4.263-5.725a19.5 19.5 0 0 0 3.4-1.312c1.025-.513 1.9-1.125 2.625-1.825.8-.75 1.4-1.638 1.812-2.663.4-1.037.613-2.212.613-3.55 0-1.487-.3-2.762-.9-3.812s-1.4-1.9-2.412-2.563c-1.05-.662-2.2-1.15-3.488-1.45s-2.65-.45-4.125-.45h-15.95v1.75c.45.038 1 .1 1.65.225q.957.188 1.575.413c.588.225.963.562 1.138 1 .162.437.237.95.237 1.512v25.088c0 .637-.1 1.15-.325 1.562s-.562.725-1.05.938c-.287.125-.812.237-1.55.312-.737.088-1.287.15-1.675.175v1.75H482.8v-1.75c-.5-.012-1.112-.075-1.85-.175-.737-.087-1.237-.2-1.525-.312-.587-.225-.975-.563-1.15-.988q-.262-.656-.262-1.5v-11h3.537c1.95 2.513 3.763 4.95 5.413 7.313a211 211 0 0 1 5.587 8.425h8.113v-1.887zm-19.463-15.963h-3.187V99.137h4.138c2.2 0 3.9.613 5.087 1.85 1.2 1.225 1.813 2.9 1.813 5 0 2.475-.75 4.438-2.238 5.875-1.487 1.45-3.362 2.163-5.6 2.163zm55.201 15.838c-.588-.163-1.088-.35-1.45-.575-.563-.375-1-.763-1.3-1.15-.313-.4-.588-.913-.838-1.538L521.3 96.638h-1.95a3953 3953 0 0 0-5.612 14.512c-2.1 5.438-4.013 10.325-5.763 14.688-.337.85-.675 1.512-1.05 2-.35.475-.862.937-1.5 1.387-.412.263-.925.463-1.575.625-.075.013-.125.025-.2.038v1.987h11.663v-1.75c-1.288-.062-2.438-.275-3.463-.637-1.025-.363-1.537-.863-1.537-1.525 0-.275.037-.638.112-1.075.088-.45.238-1.013.45-1.713.225-.712.488-1.5.775-2.35s.65-1.837 1.113-2.987h12.15l2.862 7.787c.063.163.1.35.138.563.025.212.037.4.037.537 0 .362-.412.663-1.262.912-.838.238-1.888.413-3.15.488v1.75h14.387v-1.75c-.4-.012-.912-.1-1.512-.263M513.6 117.688l5.175-13.5 5.25 13.5z" clip-rule="evenodd"/>
        <path d="M346.375 154.75v2.837c.713.05 1.675.213 2.875.476 1.225.262 2.2.575 2.912.912.925.425 1.538.987 1.838 1.675.287.662.438 1.437.438 2.313V203.8q0 1.443-.563 2.475c-.338.663-.913 1.175-1.713 1.513-.4.187-1.262.35-2.587.475-1.325.1-2.388.187-3.188.237v2.825h24.525V208.5c-.687-.025-1.7-.175-3.025-.437-1.325-.263-2.2-.488-2.587-.676-.875-.425-1.488-.987-1.838-1.675-.35-.687-.512-1.474-.512-2.35v-19.5h3.762c5.325 0 6.575.65 7.375 1.325.525.45 1.025 1.2 1.475 2.213.475 1.025.788 1.837.838 2.187h3.037V174.9H376.4a8.5 8.5 0 0 1-.875 2.737c-.425.838-.9 1.463-1.438 1.863-.775.587-2.05 1.125-7.375 1.125h-3.762v-22.613h15.112c5.325 0 6.575.65 7.375 1.325.525.45 1.025 1.2 1.475 2.213.475 1.025.838 2.175.838 2.175h3.037v-8.988H346.4z"/>
    </g>
</svg>
